<?xml version="1.0" encoding="UTF-8" standalone="no"?>
<!-- Generator: Adobe Illustrator 18.0.0, SVG Export Plug-In . SVG Version: 6.00 Build 0)  -->

<svg
   xmlns:dc="http://purl.org/dc/elements/1.1/"
   xmlns:cc="http://creativecommons.org/ns#"
   xmlns:rdf="http://www.w3.org/1999/02/22-rdf-syntax-ns#"
   xmlns:svg="http://www.w3.org/2000/svg"
   xmlns="http://www.w3.org/2000/svg"
   xmlns:sodipodi="http://sodipodi.sourceforge.net/DTD/sodipodi-0.dtd"
   xmlns:inkscape="http://www.inkscape.org/namespaces/inkscape"
   version="1.1"
   id="Calque_1"
   x="0px"
   y="0px"
   viewBox="0 0 172.3 149"
   enable-background="new 0 0 640 280"
   xml:space="preserve"
   inkscape:version="0.91 r13725"
   sodipodi:docname="Vert.x_Logo_X.svg"
   inkscape:export-filename="/Users/msavy/tmp/rhymewithgravy.com/images/Vert.x_Logo_X.png"
   inkscape:export-xdpi="90"
   inkscape:export-ydpi="90"
   width="172.3"
   height="149"><metadata
     id="metadata3434"><rdf:RDF><cc:Work
         rdf:about=""><dc:format>image/svg+xml</dc:format><dc:type
           rdf:resource="http://purl.org/dc/dcmitype/StillImage" /><dc:title></dc:title></cc:Work></rdf:RDF></metadata><defs
     id="defs3432" /><sodipodi:namedview
     pagecolor="#ffffff"
     bordercolor="#666666"
     borderopacity="1"
     objecttolerance="10"
     gridtolerance="10"
     guidetolerance="10"
     inkscape:pageopacity="0"
     inkscape:pageshadow="2"
     inkscape:window-width="1920"
     inkscape:window-height="1079"
     id="namedview3430"
     showgrid="false"
     inkscape:zoom="2.784375"
     inkscape:cx="112.94949"
     inkscape:cy="81"
     inkscape:window-x="0"
     inkscape:window-y="1"
     inkscape:window-maximized="1"
     inkscape:current-layer="Calque_1"
     fit-margin-top="0"
     fit-margin-left="0"
     fit-margin-right="0"
     fit-margin-bottom="0" /><path
     d="m 36,131 c 0,-9.9 -8.1,-18 -18,-18 -9.9,0 -18,8.1 -18,18 0,9.9 8.1,18 18,18 9.9,0 18,-8.1 18,-18"
     id="path3422"
     inkscape:connector-curvature="0"
     style="fill:#623c94" /><g
     id="g3424"
     transform="translate(-422,-72)"><path
       d="m 577.4,72 -6.2,0 -17,0 -27.5,37.8 -27.6,-37.8 -17,0 -6.4,0 -17,0 c 12.1,16 33.6,46.8 47.8,66.3 l -37,50.9 c 2,4.2 3.1,8.9 3.1,13.8 0,0.3 0,0.7 0,1 l 3.2,0 6.4,0 16.8,0 95.2,-132 -16.8,0 z"
       id="path3426"
       inkscape:connector-curvature="0"
       style="fill:#623c94" /><path
       d="m 557.7,153.5 -20.1,27.9 16.5,22.6 17,0 6.2,0 17,0 c -9.6,-13.7 -24,-33.3 -36.6,-50.5 z"
       id="path3428"
       inkscape:connector-curvature="0"
       style="fill:#623c94" /></g></svg>