<?xml version="1.0" encoding="UTF-8" standalone="no"?>
<!-- Generator: Adobe Illustrator 18.0.0, SVG Export Plug-In . SVG Version: 6.00 Build 0)  -->

<svg
   xmlns:dc="http://purl.org/dc/elements/1.1/"
   xmlns:cc="http://creativecommons.org/ns#"
   xmlns:rdf="http://www.w3.org/1999/02/22-rdf-syntax-ns#"
   xmlns:svg="http://www.w3.org/2000/svg"
   xmlns="http://www.w3.org/2000/svg"
   xmlns:sodipodi="http://sodipodi.sourceforge.net/DTD/sodipodi-0.dtd"
   xmlns:inkscape="http://www.inkscape.org/namespaces/inkscape"
   version="1.1"
   id="Calque_1"
   x="0px"
   y="0px"
   viewBox="0 0 640 280"
   enable-background="new 0 0 640 280"
   xml:space="preserve"
   inkscape:version="0.91 r13725"
   sodipodi:docname="Vert.x_Logo_X.svg"><metadata
     id="metadata3434"><rdf:RDF><cc:Work
         rdf:about=""><dc:format>image/svg+xml</dc:format><dc:type
           rdf:resource="http://purl.org/dc/dcmitype/StillImage" /><dc:title></dc:title></cc:Work></rdf:RDF></metadata><defs
     id="defs3432" /><sodipodi:namedview
     pagecolor="#ffffff"
     bordercolor="#666666"
     borderopacity="1"
     objecttolerance="10"
     gridtolerance="10"
     guidetolerance="10"
     inkscape:pageopacity="0"
     inkscape:pageshadow="2"
     inkscape:window-width="1920"
     inkscape:window-height="1079"
     id="namedview3430"
     showgrid="false"
     inkscape:zoom="2.784375"
     inkscape:cx="320"
     inkscape:cy="140"
     inkscape:window-x="0"
     inkscape:window-y="1"
     inkscape:window-maximized="1"
     inkscape:current-layer="Calque_1" /><path
     fill="#623C94"
     d="M458,203c0-9.9-8.1-18-18-18s-18,8.1-18,18s8.1,18,18,18S458,212.9,458,203"
     id="path3422" /><g
     id="g3424"><path
       fill="#623C94"
       d="M577.4,72h-6.2h-17l-27.5,37.8L499.1,72h-17h-6.4h-17c12.1,16,33.6,46.8,47.8,66.3l-37,50.9   c2,4.2,3.1,8.9,3.1,13.8c0,0.3,0,0.7,0,1h3.2h6.4H499l95.2-132H577.4z"
       id="path3426" /><path
       fill="#623C94"
       d="M557.7,153.5l-20.1,27.9l16.5,22.6h17h6.2h17C584.7,190.3,570.3,170.7,557.7,153.5z"
       id="path3428" /></g></svg>